<?xml version="1.0" encoding="UTF-8" standalone="no"?>
<!-- Created with Inkscape (http://www.inkscape.org/) -->

<svg
   width="500mm"
   height="500mm"
   viewBox="0 0 500 500"
   version="1.1"
   id="svg1"
   sodipodi:docname="frame_single.svg"
   inkscape:version="1.3.2 (091e20e, 2023-11-25, custom)"
   xmlns:inkscape="http://www.inkscape.org/namespaces/inkscape"
   xmlns:sodipodi="http://sodipodi.sourceforge.net/DTD/sodipodi-0.dtd"
   xmlns="http://www.w3.org/2000/svg"
   xmlns:svg="http://www.w3.org/2000/svg">
  <sodipodi:namedview
     id="namedview1"
     pagecolor="#ffffff"
     bordercolor="#666666"
     borderopacity="1.0"
     inkscape:showpageshadow="2"
     inkscape:pageopacity="0.0"
     inkscape:pagecheckerboard="0"
     inkscape:deskcolor="#d1d1d1"
     inkscape:document-units="mm"
     inkscape:zoom="0.42992976"
     inkscape:cx="1069.9422"
     inkscape:cy="1178.0994"
     inkscape:window-width="2560"
     inkscape:window-height="1387"
     inkscape:window-x="1912"
     inkscape:window-y="-8"
     inkscape:window-maximized="1"
     inkscape:current-layer="g14" />
  <defs
     id="defs1">
    <inkscape:path-effect
       effect="fillet_chamfer"
       id="path-effect7"
       is_visible="true"
       lpeversion="1"
       nodesatellites_param="F,0,1,1,0,24.739504,0,1 @ F,0,1,1,0,24.739504,0,1 @ F,0,1,1,0,24.739504,0,1 @ F,0,1,1,0,24.739504,0,1"
       radius="0"
       unit="px"
       method="auto"
       mode="F"
       chamfer_steps="1"
       flexible="false"
       use_knot_distance="true"
       apply_no_radius="true"
       apply_with_radius="true"
       only_selected="false"
       hide_knots="false" />
    <inkscape:path-effect
       effect="fillet_chamfer"
       id="path-effect3"
       is_visible="true"
       lpeversion="1"
       nodesatellites_param="F,0,0,1,0,14.360317,0,1 @ F,0,0,1,0,14.360317,0,1 @ F,0,0,1,0,14.360317,0,1 @ F,0,0,1,0,14.360317,0,1 @ F,0,0,1,0,14.360317,0,1 @ F,0,0,1,0,14.360317,0,1 @ F,0,0,1,0,14.360317,0,1 | F,0,1,1,0,13.315899,0,1 @ F,0,1,1,0,13.315899,0,1 @ F,0,1,1,0,13.315899,0,1 @ F,0,0,1,0,13.315899,0,1"
       radius="0"
       unit="px"
       method="auto"
       mode="F"
       chamfer_steps="1"
       flexible="false"
       use_knot_distance="true"
       apply_no_radius="true"
       apply_with_radius="true"
       only_selected="false"
       hide_knots="false" />
    <inkscape:path-effect
       effect="fillet_chamfer"
       id="path-effect1"
       is_visible="true"
       lpeversion="1"
       nodesatellites_param="F,0,0,1,0,0,0,1 @ F,0,0,1,0,0,0,1 @ F,0,0,1,0,0,0,1 @ F,0,0,1,0,0,0,1 @ F,0,0,1,0,0,0,1 @ F,0,0,1,0,0,0,1 @ F,0,0,1,0,0,0,1 @ F,0,0,1,0,0,0,1"
       radius="0"
       unit="px"
       method="auto"
       mode="F"
       chamfer_steps="1"
       flexible="false"
       use_knot_distance="true"
       apply_no_radius="true"
       apply_with_radius="true"
       only_selected="false"
       hide_knots="false" />
    <inkscape:path-effect
       effect="fillet_chamfer"
       id="path-effect7-5"
       is_visible="true"
       lpeversion="1"
       nodesatellites_param="F,0,0,1,0,22.277862,0,1 @ F,0,1,1,0,22.277862,0,1 @ F,0,1,1,0,22.277862,0,1 @ F,0,1,1,0,22.277862,0,1"
       radius="0"
       unit="px"
       method="auto"
       mode="F"
       chamfer_steps="1"
       flexible="false"
       use_knot_distance="true"
       apply_no_radius="true"
       apply_with_radius="true"
       only_selected="false"
       hide_knots="false" />
    <inkscape:path-effect
       effect="fillet_chamfer"
       id="path-effect7-7"
       is_visible="true"
       lpeversion="1"
       nodesatellites_param="F,0,1,1,0,24.739504,0,1 @ F,0,1,1,0,24.739504,0,1 @ F,0,1,1,0,24.739504,0,1 @ F,0,1,1,0,24.739504,0,1"
       radius="0"
       unit="px"
       method="auto"
       mode="F"
       chamfer_steps="1"
       flexible="false"
       use_knot_distance="true"
       apply_no_radius="true"
       apply_with_radius="true"
       only_selected="false"
       hide_knots="false" />
  </defs>
  <g
     inkscape:label="Split Line"
     inkscape:groupmode="layer"
     id="layer1"
     style="display:none">
    <path
       id="rect1"
       d="M 278.69191,21.416881 H 221.3081 c -8.87847,0 -16.02611,7.14764 -16.02611,16.0261 V 462.557 c 0,8.87847 7.14764,16.02612 16.02611,16.02612 h 57.38381 c 8.87845,0 16.0261,-7.14765 16.0261,-16.02612 V 37.442981 c 0,-8.87846 -7.14765,-16.0261 -16.0261,-16.0261 z"
       style="display:inline;fill:#000000;stroke-width:1;stroke-linejoin:round"
       sodipodi:nodetypes="sssssssss" />
  </g>
  <g
     inkscape:groupmode="layer"
     id="layer2"
     inkscape:label="Tabbed"
     style="display:none">
    <path
       id="rect2"
       style="fill:#000000;stroke-width:1;stroke-linejoin:round"
       d="M 62.663359,65.274052 A 14.360317,14.360317 0 0 0 48.302995,79.634416 v 11.749153 a 38288.597,38288.597 0 0 0 0.01085,28.720731 l 0.195854,261.31428 a 14.371093,14.371093 0 0 0 14.371215,14.36036 H 437.11906 a 14.360317,14.360317 0 0 0 14.36036,-14.36036 V 118.58139 A 14.360317,14.360317 0 0 0 437.11906,104.22103 H 202.34992 A 14.360317,14.360317 0 0 1 187.98956,89.860665 V 79.634416 A 14.360317,14.360317 0 0 0 173.6292,65.274052 Z m 11.314038,16.971574 h 88.772873 c 4.33942,0 7.8326,3.493175 7.8326,7.832597 v 2.61121 c 0,4.339421 -3.49318,7.832597 -7.8326,7.832597 H 73.977397 c -4.339422,0 -7.833114,-3.493176 -7.833114,-7.832597 v -2.61121 c 0,-4.339422 3.493692,-7.832597 7.833114,-7.832597 z m 4.830196,40.252324 H 421.19238 a 13.315899,13.315899 0 0 1 13.31598,13.31598 v 228.37211 a 13.315899,13.315899 0 0 1 -13.31598,13.31598 H 78.807593 A 13.315899,13.315899 0 0 1 65.49161,364.18604 V 135.81393 a 13.315899,13.315899 0 0 1 13.315983,-13.31598 z" />
  </g>
  <g
     inkscape:groupmode="layer"
     id="g4"
     inkscape:label="Single"
     style="display:none">
    <path
       id="path4"
       style="fill:#000000;stroke-width:1;stroke-linejoin:round"
       d="m 62.663359,72.682385 c -7.931021,-2.6e-5 -14.36039,6.429343 -14.360364,14.360364 v 11.749153 l 0.01085,21.312398 0.195854,261.31428 c 0.0059,7.93279 6.438421,14.36043 14.371215,14.36036 H 437.11906 c 7.93102,2e-5 14.36038,-6.42934 14.36036,-14.36036 0,-207.50789 -0.21745,-222.80613 -0.21745,-284.149582 V 87.042749 c 0,-6.065561 -6.42934,-14.360388 -14.36036,-14.360364 z M 73.977397,89.653959 H 391.64496 c 4.33869,0 7.8326,3.458096 7.8326,7.832597 v 2.611214 c 0,4.51159 -3.4915,7.83259 -7.8326,7.83259 H 73.977397 c -4.339422,0 -7.833114,-3.49317 -7.833114,-7.83259 v -2.611214 c 0,-4.339422 3.493692,-7.832597 7.833114,-7.832597 z m 4.830196,32.843991 H 421.19238 c 7.35423,-4e-5 13.31602,5.96175 13.31598,13.31598 v 228.37211 c 4e-5,7.35423 -5.96175,13.31602 -13.31598,13.31598 H 78.807593 c -7.354232,5e-5 -13.316028,-5.96175 -13.315983,-13.31598 V 135.81393 c -4.5e-5,-7.35423 5.961751,-13.31603 13.315983,-13.31598 z M 421.23588,89.653959 h 3.91648 c 4.33869,0 7.8326,3.458096 7.8326,7.832597 v 2.611214 c 0,4.51159 -3.4915,7.83259 -7.8326,7.83259 h -3.91648 c -4.33942,0 -7.83311,-3.49317 -7.83311,-7.83259 v -2.611214 c 0,-4.339422 3.49369,-7.832597 7.83311,-7.832597 z"
       sodipodi:nodetypes="ccccccccssccssssssssscccccccccsssssssss" />
  </g>
  <g
     inkscape:groupmode="layer"
     id="g5"
     inkscape:label="MWI"
     style="display:none">
    <path
       id="path5"
       style="display:inline;fill:#000000;stroke-width:1;stroke-linejoin:round"
       d="m 62.663359,72.682385 c -7.931021,-2.6e-5 -14.36039,6.429343 -14.360364,14.360364 v 11.749153 l 0.01085,21.312398 0.195854,261.31428 c 0.0059,7.93279 6.438421,14.36043 14.371215,14.36036 H 437.11906 c 7.93102,2e-5 14.36038,-6.42934 14.36036,-14.36036 0,-185.48733 -0.21745,-225.34446 -0.21745,-294.375831 0,-6.065561 -6.42934,-14.360388 -14.36036,-14.360364 z M 78.807593,88.12023 H 421.19238 c 7.35423,-4e-5 13.31602,5.96175 13.31598,13.31598 v 262.74983 c 4e-5,7.35423 -5.96175,13.31602 -13.31598,13.31598 H 78.807593 c -7.354232,5e-5 -13.316028,-5.96175 -13.315983,-13.31598 V 101.43621 c -4.5e-5,-7.35423 5.961751,-13.31603 13.315983,-13.31598 z"
       sodipodi:nodetypes="ccccccccsccccccccccc" />
    <path
       id="rect5"
       style="display:inline;fill:#000000;stroke-width:1;stroke-linejoin:round"
       d="m 104.00347,223.23754 c -9.160989,0 -16.535941,7.37495 -16.535941,16.53594 v 90.51385 c 0,9.16099 7.374952,16.53594 16.535941,16.53594 H 263.2723 c 9.16099,0 16.53646,-7.37495 16.53646,-16.53594 v -5.26634 h -66.02439 c -9.16099,0 -16.53594,-7.37547 -16.53594,-16.53646 v -29.20494 h -71.95582 c -9.161,0 -16.53646,-7.37494 -16.53646,-16.53594 v -39.50611 z" />
    <path
       id="rect5-1"
       style="display:inline;fill:#000000;stroke-width:1;stroke-linejoin:round"
       d="m 366.37195,190.55581 v 72.18784 c 0,9.161 -7.37546,16.53594 -16.53646,16.53594 H 208.99758 v 18.32602 c 0,9.161 7.37494,16.53594 16.53594,16.53594 h 159.26935 c 9.161,0 16.53594,-7.37494 16.53594,-16.53594 v -90.51334 c 0,-9.161 -7.37494,-16.53646 -16.53594,-16.53646 z" />
    <path
       id="rect5-1-1"
       style="display:inline;fill:#000000;stroke-width:1.25482;stroke-linejoin:round"
       d="m 135.3013,112.17765 c -9.16099,0 -16.53646,7.37547 -16.53646,16.53646 v 124.45597 c 0,9.16099 7.37547,16.53594 16.53646,16.53594 h 204.5255 c 9.16099,0 16.53594,-7.37495 16.53594,-16.53594 V 128.71411 c 0,-9.16099 -7.37495,-16.53646 -16.53594,-16.53646 z m 7.94784,12.27832 h 165.1987 c 5.83085,0 10.52494,4.0758 10.52494,9.13846 0,5.06265 -4.69409,9.13846 -10.52494,9.13846 h -165.1987 c -5.83086,0 -10.52494,-4.07581 -10.52494,-9.13846 0,-5.06266 4.69408,-9.13846 10.52494,-9.13846 z m 192.39756,0 h 0.59479 c 4.89793,0 8.84132,4.07579 8.84132,9.13846 0,5.06265 -3.94339,9.13846 -8.84132,9.13846 h -0.59479 c -4.89792,0 -8.84081,-4.07581 -8.84081,-9.13846 0,-5.06267 3.94289,-9.13846 8.84081,-9.13846 z" />
  </g>
  <g
     inkscape:groupmode="layer"
     id="layer3"
     inkscape:label="Merge_R"
     style="display:none">
    <path
       id="rect7"
       style="stroke-width:1.20845;stroke-linejoin:round"
       d="M 69.049001,49.232617 A 24.739504,24.739504 0 0 0 44.309426,73.972192 V 423.27955 a 24.739504,24.739504 0 0 0 24.739575,24.73958 H 242.3485 a 24.739504,24.739504 0 0 0 24.73958,-24.73958 V 309.55161 h -30.15475 v 86.77507 A 18.042069,20.921679 0 0 1 218.89102,417.2484 H 92.507001 A 18.042069,20.921679 0 0 1 74.464691,396.32668 V 100.92507 A 18.042069,20.921679 0 0 1 92.507001,80.003348 H 218.89102 a 18.042069,20.921679 0 0 1 18.04231,20.921722 v 86.77506 h 30.15475 V 73.972192 A 24.739504,24.739504 0 0 0 242.3485,49.232617 Z"
       transform="translate(-16.714728,1.3741135)" />
    <path
       id="rect7-9"
       style="stroke-width:1.20845;stroke-linejoin:round"
       d="M 66.587363,49.232617 A 22.277862,22.277862 0 0 0 44.309654,71.510843 V 187.70013 H 87.277573 V 147.0158 L 210.57031,249.71392 87.277573,350.23595 V 309.55161 H 44.309654 V 425.7409 a 22.277862,22.277862 0 0 0 22.277709,22.27823 H 244.81008 A 22.277862,22.277862 0 0 0 267.0883,425.7409 V 71.510843 A 22.277862,22.277862 0 0 0 244.81008,49.232617 Z"
       transform="translate(205.31697,1.3741135)" />
  </g>
  <g
     inkscape:groupmode="layer"
     id="g10"
     inkscape:label="Merge_L"
     style="display:none"
     transform="matrix(-1,0,0,1,499.99997,0)">
    <path
       id="path9"
       style="stroke-width:1.20845;stroke-linejoin:round"
       d="M 69.049001,49.232617 A 24.739504,24.739504 0 0 0 44.309426,73.972192 V 423.27955 a 24.739504,24.739504 0 0 0 24.739575,24.73958 H 242.3485 a 24.739504,24.739504 0 0 0 24.73958,-24.73958 V 309.55161 h -30.15475 v 86.77507 A 18.042069,20.921679 0 0 1 218.89102,417.2484 H 92.507001 A 18.042069,20.921679 0 0 1 74.464691,396.32668 V 100.92507 A 18.042069,20.921679 0 0 1 92.507001,80.003348 H 218.89102 a 18.042069,20.921679 0 0 1 18.04231,20.921722 v 86.77506 h 30.15475 V 73.972192 A 24.739504,24.739504 0 0 0 242.3485,49.232617 Z"
       transform="translate(-16.714728,1.3741135)" />
    <path
       id="path10"
       style="stroke-width:1.20845;stroke-linejoin:round"
       d="M 66.587363,49.232617 A 22.277862,22.277862 0 0 0 44.309654,71.510843 V 187.70013 H 87.277573 V 147.0158 L 210.57031,249.71392 87.277573,350.23595 V 309.55161 H 44.309654 V 425.7409 a 22.277862,22.277862 0 0 0 22.277709,22.27823 H 244.81008 A 22.277862,22.277862 0 0 0 267.0883,425.7409 V 71.510843 A 22.277862,22.277862 0 0 0 244.81008,49.232617 Z"
       transform="translate(205.31697,1.3741135)" />
  </g>
  <g
     inkscape:groupmode="layer"
     id="g12"
     inkscape:label="Merge_U"
     style="display:none"
     transform="matrix(0,-1,-1,0,499.99997,499.99997)">
    <path
       id="path11"
       style="stroke-width:1.20845;stroke-linejoin:round"
       d="M 69.049001,49.232617 A 24.739504,24.739504 0 0 0 44.309426,73.972192 V 423.27955 a 24.739504,24.739504 0 0 0 24.739575,24.73958 H 242.3485 a 24.739504,24.739504 0 0 0 24.73958,-24.73958 V 309.55161 h -30.15475 v 86.77507 A 18.042069,20.921679 0 0 1 218.89102,417.2484 H 92.507001 A 18.042069,20.921679 0 0 1 74.464691,396.32668 V 100.92507 A 18.042069,20.921679 0 0 1 92.507001,80.003348 H 218.89102 a 18.042069,20.921679 0 0 1 18.04231,20.921722 v 86.77506 h 30.15475 V 73.972192 A 24.739504,24.739504 0 0 0 242.3485,49.232617 Z"
       transform="translate(-16.714728,1.3741135)" />
    <path
       id="path12"
       style="stroke-width:1.20845;stroke-linejoin:round"
       d="M 66.587363,49.232617 A 22.277862,22.277862 0 0 0 44.309654,71.510843 V 187.70013 H 87.277573 V 147.0158 L 210.57031,249.71392 87.277573,350.23595 V 309.55161 H 44.309654 V 425.7409 a 22.277862,22.277862 0 0 0 22.277709,22.27823 H 244.81008 A 22.277862,22.277862 0 0 0 267.0883,425.7409 V 71.510843 A 22.277862,22.277862 0 0 0 244.81008,49.232617 Z"
       transform="translate(205.31697,1.3741135)" />
  </g>
  <g
     inkscape:groupmode="layer"
     id="g14"
     inkscape:label="Merge_D"
     style="display:inline"
     transform="rotate(90,249.99998,249.99999)">
    <path
       id="path13"
       style="stroke-width:1.20845;stroke-linejoin:round"
       d="M 69.049001,49.232617 A 24.739504,24.739504 0 0 0 44.309426,73.972192 V 423.27955 a 24.739504,24.739504 0 0 0 24.739575,24.73958 H 242.3485 a 24.739504,24.739504 0 0 0 24.73958,-24.73958 V 309.55161 h -30.15475 v 86.77507 A 18.042069,20.921679 0 0 1 218.89102,417.2484 H 92.507001 A 18.042069,20.921679 0 0 1 74.464691,396.32668 V 100.92507 A 18.042069,20.921679 0 0 1 92.507001,80.003348 H 218.89102 a 18.042069,20.921679 0 0 1 18.04231,20.921722 v 86.77506 h 30.15475 V 73.972192 A 24.739504,24.739504 0 0 0 242.3485,49.232617 Z"
       transform="translate(-16.714728,1.3741135)" />
    <path
       id="path14"
       style="stroke-width:1.20845;stroke-linejoin:round"
       d="M 66.587363,49.232617 A 22.277862,22.277862 0 0 0 44.309654,71.510843 V 187.70013 H 87.277573 V 147.0158 L 210.57031,249.71392 87.277573,350.23595 V 309.55161 H 44.309654 V 425.7409 a 22.277862,22.277862 0 0 0 22.277709,22.27823 H 244.81008 A 22.277862,22.277862 0 0 0 267.0883,425.7409 V 71.510843 A 22.277862,22.277862 0 0 0 244.81008,49.232617 Z"
       transform="translate(205.31697,1.3741135)" />
  </g>
</svg>
