<?xml version="1.0" encoding="UTF-8" standalone="no"?>
<!-- Created with Inkscape (http://www.inkscape.org/) -->

<svg
   width="500mm"
   height="500mm"
   viewBox="0 0 500 500"
   version="1.1"
   id="svg1"
   xmlns="http://www.w3.org/2000/svg"
   xmlns:svg="http://www.w3.org/2000/svg">
  <defs
     id="defs1" />
  <g
     id="layer1"
     style="display:none">
    <path
       id="rect1"
       d="M 278.69191,21.416881 H 221.3081 c -8.87847,0 -16.02611,7.14764 -16.02611,16.0261 V 462.557 c 0,8.87847 7.14764,16.02612 16.02611,16.02612 h 57.38381 c 8.87845,0 16.0261,-7.14765 16.0261,-16.02612 V 37.442981 c 0,-8.87846 -7.14765,-16.0261 -16.0261,-16.0261 z"
       style="display:inline;fill:#000000;stroke-width:1;stroke-linejoin:round" />
  </g>
  <g
     id="layer2">
    <path
       id="rect2"
       style="fill:#1a1a1a;stroke-width:1;stroke-linejoin:round"
       d="M 62.663359 65.274052 A 14.360317 14.360317 0 0 0 48.302995 79.634416 L 48.302995 91.383569 A 38288.597 38288.597 0 0 0 48.313847 120.1043 L 48.509701 381.41858 A 14.371093 14.371093 0 0 0 62.880916 395.77894 L 437.11906 395.77894 A 14.360317 14.360317 0 0 0 451.47942 381.41858 L 451.47942 118.58139 A 14.360317 14.360317 0 0 0 437.11906 104.22103 L 202.34992 104.22103 A 14.360317 14.360317 0 0 1 187.98956 89.860665 L 187.98956 79.634416 A 14.360317 14.360317 0 0 0 173.6292 65.274052 L 62.663359 65.274052 z M 73.977397 82.245626 L 162.75027 82.245626 C 167.08969 82.245626 170.58287 85.738801 170.58287 90.078223 L 170.58287 92.689433 C 170.58287 97.028854 167.08969 100.52203 162.75027 100.52203 L 73.977397 100.52203 C 69.637975 100.52203 66.144283 97.028854 66.144283 92.689433 L 66.144283 90.078223 C 66.144283 85.738801 69.637975 82.245626 73.977397 82.245626 z M 78.807593 122.49795 L 421.19238 122.49795 A 13.315899 13.315899 0 0 1 434.50836 135.81393 L 434.50836 364.18604 A 13.315899 13.315899 0 0 1 421.19238 377.50202 L 78.807593 377.50202 A 13.315899 13.315899 0 0 1 65.49161 364.18604 L 65.49161 135.81393 A 13.315899 13.315899 0 0 1 78.807593 122.49795 z " />
  </g>
</svg>
