<?xml version="1.0" encoding="UTF-8" standalone="no"?>
<!-- Created with Inkscape (http://www.inkscape.org/) -->

<svg
   width="500mm"
   height="500mm"
   viewBox="0 0 500 500"
   version="1.1"
   id="svg1"
   sodipodi:docname="menu_icons.svg"
   inkscape:version="1.3.2 (091e20e, 2023-11-25, custom)"
   xmlns:inkscape="http://www.inkscape.org/namespaces/inkscape"
   xmlns:sodipodi="http://sodipodi.sourceforge.net/DTD/sodipodi-0.dtd"
   xmlns="http://www.w3.org/2000/svg"
   xmlns:svg="http://www.w3.org/2000/svg">
  <sodipodi:namedview
     id="namedview1"
     pagecolor="#ffffff"
     bordercolor="#666666"
     borderopacity="1.0"
     inkscape:showpageshadow="2"
     inkscape:pageopacity="0.0"
     inkscape:pagecheckerboard="0"
     inkscape:deskcolor="#d1d1d1"
     inkscape:document-units="mm"
     inkscape:zoom="0.42992976"
     inkscape:cx="1069.9422"
     inkscape:cy="1092.0388"
     inkscape:window-width="2560"
     inkscape:window-height="1387"
     inkscape:window-x="1912"
     inkscape:window-y="-8"
     inkscape:window-maximized="1"
     inkscape:current-layer="g5" />
  <defs
     id="defs1">
    <linearGradient
       id="swatch21"
       inkscape:swatch="solid">
      <stop
         style="stop-color:#1a1a1a;stop-opacity:1;"
         offset="0"
         id="stop21" />
    </linearGradient>
    <inkscape:path-effect
       effect="fillet_chamfer"
       id="path-effect17"
       is_visible="true"
       lpeversion="1"
       nodesatellites_param="F,0,0,1,0,0,0,1 @ F,0,0,1,0,0,0,1 @ F,0,0,1,0,0,0,1 @ F,0,0,1,0,0,0,1 @ F,0,0,1,0,0,0,1 @ F,0,0,1,0,0,0,1 @ F,0,0,1,0,0,0,1 @ F,0,0,1,0,0,0,1 @ F,0,0,1,0,0,0,1 @ F,0,0,1,0,0,0,1 @ F,0,0,1,0,0,0,1 @ F,0,0,1,0,0,0,1 | F,0,0,1,0,0,0,1 @ F,0,0,1,0,0,0,1 @ F,0,0,1,0,0,0,1 @ F,0,0,1,0,0,0,1 @ F,0,0,1,0,0,0,1 @ F,0,0,1,0,0,0,1 @ F,0,0,1,0,0,0,1 @ F,0,0,1,0,0,0,1 | F,0,0,1,0,0,0,1 @ F,0,0,1,0,0,0,1 @ F,0,0,1,0,0,0,1 @ F,0,0,1,0,0,0,1 @ F,0,0,1,0,0,0,1 @ F,0,0,1,0,0,0,1 @ F,0,0,1,0,0,0,1 @ F,0,0,1,0,0,0,1"
       radius="0"
       unit="px"
       method="auto"
       mode="F"
       chamfer_steps="1"
       flexible="false"
       use_knot_distance="true"
       apply_no_radius="true"
       apply_with_radius="true"
       only_selected="false"
       hide_knots="false" />
    <inkscape:path-effect
       effect="fillet_chamfer"
       id="path-effect16"
       is_visible="true"
       lpeversion="1"
       nodesatellites_param="F,0,0,1,0,0,0,1 @ F,0,0,1,0,0,0,1 @ F,0,0,1,0,0,0,1 @ F,0,0,1,0,0,0,1 @ F,0,0,1,0,0,0,1 @ F,0,0,1,0,0,0,1 @ F,0,0,1,0,0,0,1 @ F,0,0,1,0,0,0,1 @ F,0,0,1,0,0,0,1 @ F,0,0,1,0,0,0,1 @ F,0,0,1,0,0,0,1 @ F,0,0,1,0,0,0,1 | F,0,0,1,0,0,0,1 @ F,0,0,1,0,0,0,1 @ F,0,0,1,0,0,0,1 @ F,0,0,1,0,0,0,1 @ F,0,0,1,0,0,0,1 @ F,0,0,1,0,0,0,1 @ F,0,0,1,0,0,0,1 @ F,0,0,1,0,0,0,1 | F,0,0,1,0,0,0,1 @ F,0,0,1,0,0,0,1 @ F,0,0,1,0,0,0,1 @ F,0,0,1,0,0,0,1 @ F,0,0,1,0,0,0,1 @ F,0,0,1,0,0,0,1 @ F,0,0,1,0,0,0,1 @ F,0,0,1,0,0,0,1"
       radius="0"
       unit="px"
       method="auto"
       mode="F"
       chamfer_steps="1"
       flexible="false"
       use_knot_distance="true"
       apply_no_radius="true"
       apply_with_radius="true"
       only_selected="false"
       hide_knots="false" />
    <inkscape:path-effect
       effect="fillet_chamfer"
       id="path-effect15"
       is_visible="true"
       lpeversion="1"
       nodesatellites_param="F,0,0,1,0,0,0,1 @ F,0,0,1,0,0,0,1 @ F,0,0,1,0,0,0,1 @ F,0,0,1,0,0,0,1 @ F,0,0,1,0,0,0,1 @ F,0,0,1,0,0,0,1 @ F,0,0,1,0,0,0,1 @ F,0,0,1,0,0,0,1 @ F,0,0,1,0,0,0,1 @ F,0,0,1,0,0,0,1 @ F,0,0,1,0,0,0,1 @ F,0,0,1,0,0,0,1 | F,0,0,1,0,0,0,1 @ F,0,0,1,0,0,0,1 @ F,0,0,1,0,0,0,1 @ F,0,0,1,0,0,0,1 @ F,0,0,1,0,0,0,1 @ F,0,0,1,0,0,0,1 @ F,0,0,1,0,0,0,1 @ F,0,0,1,0,0,0,1 | F,0,0,1,0,0,0,1 @ F,0,0,1,0,0,0,1 @ F,0,0,1,0,0,0,1 @ F,0,0,1,0,0,0,1 @ F,0,0,1,0,0,0,1 @ F,0,0,1,0,0,0,1 @ F,0,0,1,0,0,0,1 @ F,0,0,1,0,0,0,1"
       radius="0"
       unit="px"
       method="auto"
       mode="F"
       chamfer_steps="1"
       flexible="false"
       use_knot_distance="true"
       apply_no_radius="true"
       apply_with_radius="true"
       only_selected="false"
       hide_knots="false" />
    <inkscape:path-effect
       effect="fillet_chamfer"
       id="path-effect7"
       is_visible="true"
       lpeversion="1"
       nodesatellites_param="F,0,1,1,0,24.739504,0,1 @ F,0,1,1,0,24.739504,0,1 @ F,0,1,1,0,24.739504,0,1 @ F,0,1,1,0,24.739504,0,1"
       radius="0"
       unit="px"
       method="auto"
       mode="F"
       chamfer_steps="1"
       flexible="false"
       use_knot_distance="true"
       apply_no_radius="true"
       apply_with_radius="true"
       only_selected="false"
       hide_knots="false" />
    <inkscape:path-effect
       effect="fillet_chamfer"
       id="path-effect3"
       is_visible="true"
       lpeversion="1"
       nodesatellites_param="F,0,0,1,0,14.360317,0,1 @ F,0,0,1,0,14.360317,0,1 @ F,0,0,1,0,14.360317,0,1 @ F,0,0,1,0,14.360317,0,1 @ F,0,0,1,0,14.360317,0,1 @ F,0,0,1,0,14.360317,0,1 @ F,0,0,1,0,14.360317,0,1 | F,0,1,1,0,13.315899,0,1 @ F,0,1,1,0,13.315899,0,1 @ F,0,1,1,0,13.315899,0,1 @ F,0,0,1,0,13.315899,0,1"
       radius="0"
       unit="px"
       method="auto"
       mode="F"
       chamfer_steps="1"
       flexible="false"
       use_knot_distance="true"
       apply_no_radius="true"
       apply_with_radius="true"
       only_selected="false"
       hide_knots="false" />
    <inkscape:path-effect
       effect="fillet_chamfer"
       id="path-effect1"
       is_visible="true"
       lpeversion="1"
       nodesatellites_param="F,0,0,1,0,0,0,1 @ F,0,0,1,0,0,0,1 @ F,0,0,1,0,0,0,1 @ F,0,0,1,0,0,0,1 @ F,0,0,1,0,0,0,1 @ F,0,0,1,0,0,0,1 @ F,0,0,1,0,0,0,1 @ F,0,0,1,0,0,0,1"
       radius="0"
       unit="px"
       method="auto"
       mode="F"
       chamfer_steps="1"
       flexible="false"
       use_knot_distance="true"
       apply_no_radius="true"
       apply_with_radius="true"
       only_selected="false"
       hide_knots="false" />
    <inkscape:path-effect
       effect="fillet_chamfer"
       id="path-effect7-5"
       is_visible="true"
       lpeversion="1"
       nodesatellites_param="F,0,0,1,0,22.277862,0,1 @ F,0,1,1,0,22.277862,0,1 @ F,0,1,1,0,22.277862,0,1 @ F,0,1,1,0,22.277862,0,1"
       radius="0"
       unit="px"
       method="auto"
       mode="F"
       chamfer_steps="1"
       flexible="false"
       use_knot_distance="true"
       apply_no_radius="true"
       apply_with_radius="true"
       only_selected="false"
       hide_knots="false" />
    <inkscape:path-effect
       effect="fillet_chamfer"
       id="path-effect7-7"
       is_visible="true"
       lpeversion="1"
       nodesatellites_param="F,0,1,1,0,24.739504,0,1 @ F,0,1,1,0,24.739504,0,1 @ F,0,1,1,0,24.739504,0,1 @ F,0,1,1,0,24.739504,0,1"
       radius="0"
       unit="px"
       method="auto"
       mode="F"
       chamfer_steps="1"
       flexible="false"
       use_knot_distance="true"
       apply_no_radius="true"
       apply_with_radius="true"
       only_selected="false"
       hide_knots="false" />
  </defs>
  <g
     inkscape:label="Split Line"
     inkscape:groupmode="layer"
     id="layer1"
     style="display:none">
    <path
       id="rect1"
       d="M 278.69191,21.416881 H 221.3081 c -8.87847,0 -16.02611,7.14764 -16.02611,16.0261 V 462.557 c 0,8.87847 7.14764,16.02612 16.02611,16.02612 h 57.38381 c 8.87845,0 16.0261,-7.14765 16.0261,-16.02612 V 37.442981 c 0,-8.87846 -7.14765,-16.0261 -16.0261,-16.0261 z"
       style="display:inline;fill:#000000;stroke-width:1;stroke-linejoin:round"
       sodipodi:nodetypes="sssssssss" />
  </g>
  <g
     inkscape:groupmode="layer"
     id="layer2"
     inkscape:label="Tabbed"
     style="display:none"
     transform="translate(0,10.461981)">
    <path
       id="rect2"
       style="fill:#000000;stroke-width:1.20041;stroke-linejoin:round"
       d="M 18.189602,25.668137 C 8.370053,25.668106 0.40972732,33.150984 0.40975905,42.381572 0.40505234,173.81924 0.5608857,305.25686 0.66568325,436.69447 0.67301925,445.92712 8.6372174,453.40798 18.458961,453.4079 H 481.8104 c 9.81955,3e-5 17.77987,-7.48284 17.77984,-16.71343 V 130.78909 c 3e-5,-9.23058 -7.96029,-16.71346 -17.77984,-16.71343 H 261.29503 c -9.81955,3e-5 -17.77987,-7.48285 -17.77984,-16.713436 V 42.381572 c 3e-5,-9.230587 -7.96029,-16.713464 -17.77984,-16.713435 z M 40.198068,58.959685 H 203.65019 c 5.37272,0 9.69769,4.065563 9.69769,9.116037 v 3.03908 c 0,5.050473 -4.32497,9.116037 -9.69769,9.116037 H 40.198068 c -5.372722,0 -9.698329,-4.065564 -9.698329,-9.116037 v -3.03908 c 0,-5.050474 4.325607,-9.116037 9.698329,-9.116037 z M 81.002816,170.42582 H 419.26654 c 7.26572,-5e-5 13.15575,5.29843 13.15571,11.83442 v 202.96307 c 4e-5,6.53599 -5.88999,11.83447 -13.15571,11.83442 H 81.002816 c -7.265714,5e-5 -13.155751,-5.29843 -13.155707,-11.83442 V 182.26024 c -4.4e-5,-6.53599 5.889993,-11.83447 13.155707,-11.83442 z"
       sodipodi:nodetypes="cccccccccccccsssssssssccccccccc" />
  </g>
  <g
     inkscape:groupmode="layer"
     id="g18"
     inkscape:label="Single"
     style="display:none"
     transform="translate(0,10.461981)">
    <path
       id="path18"
       style="fill:#000000;stroke-width:1.20041;stroke-linejoin:round"
       d="M 18.189602,25.668137 C 8.370053,25.668106 0.40972732,33.150984 0.40975905,42.381572 0.40505234,173.81924 0.5608857,305.25686 0.66568325,436.69447 0.67301925,445.92712 8.6372174,453.40798 18.458961,453.4079 H 481.8104 c 9.81955,3e-5 17.74775,-7.48284 17.74772,-16.71343 0,-77.77634 0,-288.56018 0,-394.312898 3e-5,-9.230587 -7.99241,-16.713464 -17.81196,-16.713435 z M 40.198068,58.959685 H 459.661 c 5.37272,0 9.69769,4.065563 9.69769,9.116037 v 3.03908 c 0,5.050473 -4.32497,9.116037 -9.69769,9.116037 H 40.198068 c -5.372722,0 -9.698329,-4.065564 -9.698329,-9.116037 v -3.03908 c 0,-5.050474 4.325607,-9.116037 9.698329,-9.116037 z M 81.002816,170.42582 H 419.26654 c 7.26572,-5e-5 13.15575,5.29843 13.15571,11.83442 v 202.96307 c 4e-5,6.53599 -5.88999,11.83447 -13.15571,11.83442 H 81.002816 c -7.265714,5e-5 -13.155751,-5.29843 -13.155707,-11.83442 V 182.26024 c -4.4e-5,-6.53599 5.889993,-11.83447 13.155707,-11.83442 z"
       sodipodi:nodetypes="cccccccccsssssssssccccccccc" />
  </g>
  <g
     inkscape:groupmode="layer"
     id="g5"
     inkscape:label="MWI"
     style="display:none">
    <g
       id="g19"
       transform="translate(0,-41.23251)">
      <path
         id="rect5"
         style="display:inline;fill:#000000;stroke-width:1.50526;stroke-linejoin:round"
         d="m 25.914234,241.10893 c -14.62145,0 -26.3922852,10.46975 -26.3922852,23.47502 v 210.96172 c 0,13.00527 11.7708352,23.47501 26.3922852,23.47501 H 280.11619 c 14.62145,0 26.39311,-10.46974 26.39311,-23.47501 V 434.83721 H 201.13068 c -14.62145,0 -26.39228,-10.47048 -26.39228,-23.47575 V 320.66823 H 59.892892 c -14.621468,0 -26.393115,-10.46972 -26.393115,-23.47501 v -56.08429 z"
         sodipodi:nodetypes="sssssscsscsscs" />
      <path
         id="rect5-1"
         style="display:inline;fill:#000000;stroke-width:1.50526;stroke-linejoin:round"
         d="m 444.66899,194.71278 v 102.48044 c 0,13.00529 -11.77165,23.47501 -26.39312,23.47501 H 223.64582 v 57.40222 c 0,13.00528 11.77082,23.47501 26.39228,23.47501 h 224.04767 c 14.62147,0 26.39228,-10.46973 26.39228,-23.47501 V 218.18853 c 0,-13.00528 -11.77081,-23.47575 -26.39228,-23.47575 z"
         sodipodi:nodetypes="csscssssssc" />
      <path
         id="rect5-1-1"
         style="display:inline;fill:#000000;stroke-width:1.88883;stroke-linejoin:round"
         d="m 94.945049,83.444341 c -14.621452,0 -26.393114,10.470481 -26.393114,23.475749 v 153.91196 c 0,13.00527 11.771662,23.47501 26.393114,23.47501 H 382.60831 c 14.62145,0 26.39228,-10.46974 26.39228,-23.47501 V 106.92009 c 0,-13.005268 -11.77083,-23.475749 -26.39228,-23.475749 z m 12.685201,17.430739 h 224.89548 c 9.30636,0 16.79839,5.78616 16.79839,12.97329 0,7.18712 -7.49203,12.97328 -16.79839,12.97328 H 107.63025 c -9.306383,0 -16.798397,-5.78616 -16.798397,-12.97328 0,-7.18713 7.492014,-12.97329 16.798397,-12.97329 z m 268.30638,0 h 0.94932 c 7.81737,0 14.11124,5.78614 14.11124,12.97329 0,7.18712 -6.29387,12.97328 -14.11124,12.97328 h -0.94932 c -7.81735,0 -14.11042,-5.78616 -14.11042,-12.97328 0,-7.18715 6.29307,-12.97329 14.11042,-12.97329 z"
         sodipodi:nodetypes="sssssssssssssssssssssss" />
    </g>
  </g>
  <g
     inkscape:groupmode="layer"
     id="layer3"
     inkscape:label="Merge_R"
     style="display:none">
    <path
       id="rect7"
       style="stroke-width:1.20845;stroke-linejoin:round"
       d="M 69.049001,49.232617 A 24.739504,24.739504 0 0 0 44.309426,73.972192 V 423.27955 a 24.739504,24.739504 0 0 0 24.739575,24.73958 H 242.3485 a 24.739504,24.739504 0 0 0 24.73958,-24.73958 V 309.55161 h -30.15475 v 86.77507 A 18.042069,20.921679 0 0 1 218.89102,417.2484 H 92.507001 A 18.042069,20.921679 0 0 1 74.464691,396.32668 V 100.92507 A 18.042069,20.921679 0 0 1 92.507001,80.003348 H 218.89102 a 18.042069,20.921679 0 0 1 18.04231,20.921722 v 86.77506 h 30.15475 V 73.972192 A 24.739504,24.739504 0 0 0 242.3485,49.232617 Z"
       transform="translate(-16.714728,1.3741135)" />
    <path
       id="rect7-9"
       style="stroke-width:1.20845;stroke-linejoin:round"
       d="M 66.587363,49.232617 A 22.277862,22.277862 0 0 0 44.309654,71.510843 V 187.70013 H 87.277573 V 147.0158 L 210.57031,249.71392 87.277573,350.23595 V 309.55161 H 44.309654 V 425.7409 a 22.277862,22.277862 0 0 0 22.277709,22.27823 H 244.81008 A 22.277862,22.277862 0 0 0 267.0883,425.7409 V 71.510843 A 22.277862,22.277862 0 0 0 244.81008,49.232617 Z"
       transform="translate(205.31697,1.3741135)" />
  </g>
  <g
     inkscape:groupmode="layer"
     id="g10"
     inkscape:label="Merge_L"
     style="display:none"
     transform="matrix(-1,0,0,1,499.99997,0)">
    <path
       id="path9"
       style="stroke-width:1.20845;stroke-linejoin:round"
       d="M 69.049001,49.232617 A 24.739504,24.739504 0 0 0 44.309426,73.972192 V 423.27955 a 24.739504,24.739504 0 0 0 24.739575,24.73958 H 242.3485 a 24.739504,24.739504 0 0 0 24.73958,-24.73958 V 309.55161 h -30.15475 v 86.77507 A 18.042069,20.921679 0 0 1 218.89102,417.2484 H 92.507001 A 18.042069,20.921679 0 0 1 74.464691,396.32668 V 100.92507 A 18.042069,20.921679 0 0 1 92.507001,80.003348 H 218.89102 a 18.042069,20.921679 0 0 1 18.04231,20.921722 v 86.77506 h 30.15475 V 73.972192 A 24.739504,24.739504 0 0 0 242.3485,49.232617 Z"
       transform="translate(-16.714728,1.3741135)" />
    <path
       id="path10"
       style="stroke-width:1.20845;stroke-linejoin:round"
       d="M 66.587363,49.232617 A 22.277862,22.277862 0 0 0 44.309654,71.510843 V 187.70013 H 87.277573 V 147.0158 L 210.57031,249.71392 87.277573,350.23595 V 309.55161 H 44.309654 V 425.7409 a 22.277862,22.277862 0 0 0 22.277709,22.27823 H 244.81008 A 22.277862,22.277862 0 0 0 267.0883,425.7409 V 71.510843 A 22.277862,22.277862 0 0 0 244.81008,49.232617 Z"
       transform="translate(205.31697,1.3741135)" />
  </g>
  <g
     inkscape:groupmode="layer"
     id="g12"
     inkscape:label="Merge_U"
     style="display:none"
     transform="matrix(0,-1,-1,0,499.99997,499.99997)">
    <path
       id="path11"
       style="stroke-width:1.20845;stroke-linejoin:round"
       d="M 69.049001,49.232617 A 24.739504,24.739504 0 0 0 44.309426,73.972192 V 423.27955 a 24.739504,24.739504 0 0 0 24.739575,24.73958 H 242.3485 a 24.739504,24.739504 0 0 0 24.73958,-24.73958 V 309.55161 h -30.15475 v 86.77507 A 18.042069,20.921679 0 0 1 218.89102,417.2484 H 92.507001 A 18.042069,20.921679 0 0 1 74.464691,396.32668 V 100.92507 A 18.042069,20.921679 0 0 1 92.507001,80.003348 H 218.89102 a 18.042069,20.921679 0 0 1 18.04231,20.921722 v 86.77506 h 30.15475 V 73.972192 A 24.739504,24.739504 0 0 0 242.3485,49.232617 Z"
       transform="translate(-16.714728,1.3741135)" />
    <path
       id="path12"
       style="stroke-width:1.20845;stroke-linejoin:round"
       d="M 66.587363,49.232617 A 22.277862,22.277862 0 0 0 44.309654,71.510843 V 187.70013 H 87.277573 V 147.0158 L 210.57031,249.71392 87.277573,350.23595 V 309.55161 H 44.309654 V 425.7409 a 22.277862,22.277862 0 0 0 22.277709,22.27823 H 244.81008 A 22.277862,22.277862 0 0 0 267.0883,425.7409 V 71.510843 A 22.277862,22.277862 0 0 0 244.81008,49.232617 Z"
       transform="translate(205.31697,1.3741135)" />
  </g>
  <g
     inkscape:groupmode="layer"
     id="g14"
     inkscape:label="Merge_D"
     style="display:none"
     transform="rotate(90,249.99998,249.99999)">
    <path
       id="path13"
       style="stroke-width:1.20845;stroke-linejoin:round"
       d="M 69.049001,49.232617 A 24.739504,24.739504 0 0 0 44.309426,73.972192 V 423.27955 a 24.739504,24.739504 0 0 0 24.739575,24.73958 H 242.3485 a 24.739504,24.739504 0 0 0 24.73958,-24.73958 V 309.55161 h -30.15475 v 86.77507 A 18.042069,20.921679 0 0 1 218.89102,417.2484 H 92.507001 A 18.042069,20.921679 0 0 1 74.464691,396.32668 V 100.92507 A 18.042069,20.921679 0 0 1 92.507001,80.003348 H 218.89102 a 18.042069,20.921679 0 0 1 18.04231,20.921722 v 86.77506 h 30.15475 V 73.972192 A 24.739504,24.739504 0 0 0 242.3485,49.232617 Z"
       transform="translate(-16.714728,1.3741135)" />
    <path
       id="path14"
       style="stroke-width:1.20845;stroke-linejoin:round"
       d="M 66.587363,49.232617 A 22.277862,22.277862 0 0 0 44.309654,71.510843 V 187.70013 H 87.277573 V 147.0158 L 210.57031,249.71392 87.277573,350.23595 V 309.55161 H 44.309654 V 425.7409 a 22.277862,22.277862 0 0 0 22.277709,22.27823 H 244.81008 A 22.277862,22.277862 0 0 0 267.0883,425.7409 V 71.510843 A 22.277862,22.277862 0 0 0 244.81008,49.232617 Z"
       transform="translate(205.31697,1.3741135)" />
  </g>
  <g
     inkscape:groupmode="layer"
     id="layer5"
     inkscape:label="Layer 2"
     style="display:inline">
    <path
       style="color:#000000;fill:#000000;stroke-linejoin:round;-inkscape-stroke:none"
       d="m 131.69727,49.183594 c -1.87449,0 -3.73683,0.08915 -5.58789,0.263672 -3.70226,0.349062 -7.35564,1.043148 -10.94922,2.064453 -1.79672,0.51063 -3.57777,1.101283 -5.34375,1.773437 -1.76596,0.672141 -3.51739,1.424755 -5.25,2.253906 -3.46531,1.658343 -6.861138,3.626662 -10.179691,5.886719 -3.318539,2.26005 -6.558672,4.811736 -9.712891,7.638672 -1.57713,1.413486 -3.133275,2.896613 -4.666016,4.445313 -1.53275,1.54871 -3.043017,3.164011 -4.529296,4.84375 -2.972545,3.359461 -5.849472,6.975913 -8.623047,10.833984 -1.386771,1.929011 -2.748228,3.917444 -4.082032,5.964844 -2.667589,4.094773 -5.225545,8.423896 -7.667968,12.966796 -1.221203,2.27144 -2.414526,4.59541 -3.576172,6.97266 -2.323268,4.75446 -4.524062,9.71673 -6.595703,14.86914 -1.035812,2.57618 -2.040171,5.19969 -3.009766,7.86914 -2.908758,8.00827 -5.514657,16.42726 -7.787109,25.19922 -0.757477,2.92395 -1.477839,5.8862 -2.160157,8.88672 -0.682316,3.00051 -1.326754,6.03856 -1.93164,9.11132 -1.209784,6.14559 -2.2618,12.43208 -3.148438,18.8418 -0.443319,3.20486 -0.845919,6.44047 -1.205078,9.70508 -0.359157,3.26461 -0.674515,6.55871 -0.947265,9.8789 -0.272751,3.32021 -0.501461,6.66752 -0.685547,10.03907 -0.184086,3.37155 -0.324798,6.76678 -0.417969,10.18554 -0.09317,3.41877 -0.138672,6.86051 -0.138672,10.32227 0,3.46177 0.0455,6.9035 0.138672,10.32227 0.09317,3.41877 0.233883,6.81399 0.417969,10.18554 0.184086,3.37155 0.412796,6.71886 0.685547,10.03906 0.27275,3.3202 0.588108,6.61431 0.947265,9.87891 0.359159,3.26461 0.761759,6.50022 1.205078,9.70508 0.886638,6.40972 1.938654,12.69621 3.148438,18.8418 0.604886,3.07276 1.249324,6.11082 1.93164,9.11132 0.682316,3.0005 1.402677,5.96276 2.160157,8.88672 0.75748,2.92397 1.552386,5.80901 2.382812,8.65235 0.830418,2.8433 1.696536,5.64582 2.597656,8.40429 0.901126,2.75848 1.837064,5.47318 2.806641,8.14258 0.969595,2.66945 1.973954,5.29297 3.009766,7.86914 1.035821,2.5762 2.103288,5.10517 3.203125,7.58399 1.09983,2.47879 2.230941,4.90791 3.392578,7.28515 1.161647,2.37726 2.35497,4.70122 3.576172,6.97266 1.221197,2.27143 2.469424,4.48884 3.748047,6.65039 1.278595,2.1615 2.586128,4.26707 3.919921,6.31445 1.333783,2.04738 2.695236,4.03776 4.082032,5.9668 1.386802,1.92905 2.798731,3.79704 4.236328,5.60352 1.437617,1.80649 2.900453,3.55074 4.386719,5.23046 1.486279,1.67974 2.996546,3.29504 4.529296,4.84375 1.532742,1.5487 3.088888,3.03182 4.666016,4.44532 1.577106,1.41346 3.175648,2.75734 4.794922,4.03125 3.238545,2.5478 6.55895,4.81374 9.953125,6.77734 1.697125,0.98182 3.411935,1.88765 5.144535,2.7168 1.73261,0.82915 3.48404,1.58177 5.25,2.2539 1.7659,0.67213 3.54694,1.26475 5.34375,1.77539 1.79681,0.51067 3.60838,0.93844 5.43359,1.28321 1.8252,0.34477 3.66448,0.60477 5.51563,0.77929 1.85116,0.17454 3.7135,0.26368 5.58789,0.26368 2.21519,0 4.39625,-0.099 6.54296,-0.29297 2.14672,-0.19393 4.25999,-0.48346 6.33789,-0.86524 2.07794,-0.38179 4.12019,-0.85645 6.12891,-1.41992 2.00875,-0.56346 3.98457,-1.2162 5.92383,-1.95508 1.9392,-0.73887 3.84331,-1.56269 5.71289,-2.4707 1.86955,-0.908 3.70431,-1.89999 5.50391,-2.9707 10.79772,-6.42435 20.33416,-15.71735 28.61718,-27.20508 1.38052,-1.91464 2.72614,-3.89033 4.03711,-5.92383 1.31096,-2.03349 2.58654,-4.12516 3.82813,-6.27148 1.2416,-2.14635 2.44887,-4.34866 3.62109,-6.60157 1.17224,-2.25291 2.30908,-4.55664 3.41211,-6.91015 1.08667,-2.31861 2.46073,-4.67423 4.08399,-7.0625 1.62328,-2.38831 3.49539,-4.80919 5.57617,-7.26172 4.16156,-4.90508 9.1588,-9.93345 14.66601,-15.07422 2.75359,-2.57038 5.63487,-5.16914 8.60352,-7.79492 2.472,-2.1865 5.02924,-4.40165 7.60156,-6.62696 2.57195,2.225 5.12991,4.44077 7.60156,6.62696 2.96865,2.62578 5.84992,5.22454 8.60352,7.79492 5.5072,5.14077 10.5025,10.16914 14.66406,15.07422 2.08076,2.4525 3.95287,4.87337 5.57617,7.26172 1.6233,2.38831 2.99735,4.74394 4.08399,7.0625 1.10303,2.35351 2.24182,4.65724 3.41406,6.91015 1.17222,2.25291 2.37753,4.45522 3.61914,6.60157 1.24159,2.14632 2.51912,4.23799 3.83008,6.27148 1.31098,2.0335 2.65659,4.00919 4.03711,5.92383 8.28302,11.48773 17.81947,20.78073 28.61719,27.20508 1.79959,1.07071 3.63435,2.0627 5.5039,2.9707 1.86958,0.90801 3.77369,1.73183 5.71289,2.4707 1.93926,0.73888 3.91313,1.39162 5.92188,1.95508 2.00872,0.56347 4.05292,1.03813 6.13086,1.41992 2.07791,0.38178 4.18922,0.67131 6.33593,0.86524 2.14672,0.19393 4.32778,0.29297 6.54297,0.29297 1.87439,0 3.73868,-0.0891 5.58985,-0.26368 1.85114,-0.17452 3.69042,-0.43452 5.51562,-0.77929 1.82522,-0.34477 3.63679,-0.77254 5.4336,-1.28321 1.7968,-0.51064 3.57784,-1.10326 5.34375,-1.77539 1.76595,-0.67213 3.51544,-1.42475 5.24804,-2.2539 1.7326,-0.82915 3.44936,-1.73498 5.14649,-2.7168 3.39417,-1.9636 6.71458,-4.22954 9.95312,-6.77734 1.61928,-1.27391 3.21782,-2.61779 4.79492,-4.03125 1.57714,-1.4135 3.13328,-2.89662 4.66602,-4.44532 1.53275,-1.54871 3.04302,-3.16401 4.5293,-4.84375 1.48626,-1.67973 2.94714,-3.42397 4.38476,-5.23046 1.43759,-1.80647 2.85148,-3.67447 4.23828,-5.60352 1.3868,-1.92904 2.74825,-3.91942 4.08203,-5.9668 1.33379,-2.04738 2.63938,-4.15295 3.91797,-6.31445 1.27862,-2.16155 2.52881,-4.37896 3.75,-6.65039 1.22121,-2.27144 2.41453,-4.5954 3.57618,-6.97266 1.16164,-2.37724 2.29274,-4.80636 3.39257,-7.28515 1.09984,-2.47882 2.1673,-5.00779 3.20313,-7.58399 1.03581,-2.57617 2.04016,-5.19969 3.00976,-7.86914 0.9696,-2.66946 1.90358,-5.38415 2.80469,-8.14258 0.90111,-2.75841 1.76918,-5.56093 2.59961,-8.40429 0.83043,-2.84334 1.62338,-5.72838 2.38086,-8.65235 0.75748,-2.92396 1.47979,-5.88622 2.16211,-8.88672 0.68232,-3.0005 1.3248,-6.03856 1.92969,-9.11132 1.20978,-6.14559 2.26375,-12.43208 3.15039,-18.8418 0.44332,-3.20486 0.84397,-6.44047 1.20312,-9.70508 0.35917,-3.2646 0.67648,-6.55871 0.94922,-9.87891 0.27275,-3.3202 0.50147,-6.66751 0.68555,-10.03906 0.18409,-3.37155 0.32284,-6.76677 0.41601,-10.18554 0.0932,-3.41877 0.14063,-6.8605 0.14063,-10.32227 0,-3.46176 -0.0474,-6.9035 -0.14063,-10.32227 -0.0932,-3.41876 -0.23192,-6.81399 -0.41601,-10.18554 -0.18408,-3.37155 -0.4128,-6.71886 -0.68555,-10.03907 -0.27274,-3.32019 -0.59005,-6.61429 -0.94922,-9.8789 -0.35915,-3.26461 -0.7598,-6.50022 -1.20312,-9.70508 -0.88664,-6.40972 -1.94061,-12.69621 -3.15039,-18.8418 -0.60489,-3.07276 -1.24737,-6.11081 -1.92969,-9.11132 -0.68232,-3.00052 -1.40463,-5.96277 -2.16211,-8.88672 -2.27246,-8.77196 -4.8764,-17.19095 -7.78516,-25.19922 -0.9696,-2.66945 -1.97395,-5.29296 -3.00976,-7.86914 -2.07164,-5.15241 -4.27243,-10.11468 -6.5957,-14.86914 -1.16165,-2.37725 -2.35497,-4.70122 -3.57618,-6.97266 -2.44242,-4.5429 -5.00038,-8.872024 -7.66797,-12.966796 -1.3338,-2.0474 -2.69525,-4.035832 -4.08203,-5.964844 -2.77357,-3.858071 -5.6505,-7.474523 -8.62304,-10.833984 -1.48628,-1.679739 -2.99655,-3.29504 -4.5293,-4.84375 -1.53274,-1.5487 -3.08888,-3.031826 -4.66602,-4.445313 -3.15422,-2.826936 -6.39435,-5.378622 -9.71289,-7.638672 -3.31855,-2.260057 -6.71633,-4.228376 -10.18164,-5.886719 -1.7326,-0.829152 -3.48209,-1.581765 -5.24804,-2.253906 -1.76599,-0.672154 -3.54704,-1.262807 -5.34375,-1.773437 -3.59359,-1.021305 -7.24697,-1.715391 -10.94922,-2.064453 -1.85107,-0.174526 -3.71536,-0.263672 -5.58985,-0.263672 -2.21519,0 -4.39625,0.09904 -6.54297,0.292968 -2.14671,0.19393 -4.25802,0.48345 -6.33593,0.865235 -2.07794,0.381788 -4.12214,0.85646 -6.13086,1.419922 -2.00875,0.563467 -3.98262,1.216187 -5.92188,1.955078 -3.8785,1.477774 -7.61754,3.299949 -11.21679,5.441406 -1.79966,1.070745 -3.56337,2.220192 -5.29297,3.447266 -6.91856,4.908384 -13.2776,11.042915 -19.07813,18.201172 -2.90026,3.579123 -5.66122,7.413417 -8.2832,11.480468 -1.31098,2.033523 -2.58851,4.125191 -3.83008,6.271485 -1.24159,2.146316 -2.4469,4.346676 -3.61914,6.599606 -1.17224,2.25292 -2.31103,4.5586 -3.41406,6.91211 -0.5438,1.16031 -1.15885,2.34047 -1.8418,3.53711 -3.41493,5.98347 -8.51109,12.4053 -14.6582,19.1582 -2.45884,2.70115 -5.08538,5.45613 -7.83985,8.25782 -5.02863,5.11481 -10.55274,10.42439 -16.18945,15.82226 -5.63672,-5.39787 -11.16083,-10.70745 -16.18945,-15.82226 -2.75448,-2.80169 -5.38101,-5.55667 -7.83985,-8.25782 -6.14711,-6.7529 -11.24327,-13.17473 -14.6582,-19.1582 -0.68296,-1.19664 -1.29995,-2.3768 -1.84375,-3.53711 -1.10303,-2.35351 -2.23987,-4.65919 -3.41211,-6.91211 -1.17224,-2.25293 -2.3795,-4.45329 -3.62109,-6.599606 -1.24157,-2.146294 -2.51715,-4.237962 -3.82813,-6.271485 -2.62198,-4.067051 -5.38294,-7.901345 -8.2832,-11.480468 -5.80051,-7.158257 -12.15957,-13.292788 -19.07813,-18.201172 -1.7296,-1.227074 -3.4933,-2.376521 -5.29296,-3.447266 -3.59926,-2.141457 -7.3383,-3.963632 -11.2168,-5.441406 -1.93926,-0.738891 -3.91509,-1.391611 -5.92383,-1.955078 -2.00872,-0.563462 -4.05097,-1.038134 -6.12891,-1.419922 -2.07791,-0.381785 -4.19117,-0.671305 -6.33789,-0.865235 -2.14671,-0.193929 -4.32777,-0.292968 -6.54296,-0.292968 z m 0,1 c 2.18554,0 4.33662,0.09786 6.45312,0.289062 2.11649,0.191199 4.19833,0.475316 6.24609,0.851563 2.04776,0.376243 4.06159,0.845145 6.04102,1.40039 1.97941,0.55524 3.92456,1.197516 5.83594,1.925782 3.82277,1.456538 7.51058,3.25389 11.0625,5.367187 1.77593,1.056631 3.5181,2.192224 5.22656,3.404297 6.83373,4.848206 13.12753,10.916059 18.87891,18.013672 2.87569,3.548811 5.61486,7.355545 8.21875,11.394531 1.30193,2.019497 2.57086,4.097557 3.80468,6.230469 1.23383,2.132893 2.43397,4.320303 3.59961,6.560543 1.16564,2.24024 2.29719,4.53167 3.39453,6.87305 0.55638,1.18715 1.18399,2.38983 1.87891,3.60742 3.47438,6.08764 8.61285,12.55321 14.78711,19.33594 2.46972,2.71311 5.10585,5.47845 7.86719,8.28711 5.15004,5.23831 10.79313,10.66342 16.55664,16.18164 a 0.50005,0.50005 0 0 0 0.6914,0 c 5.7635,-5.51822 11.40659,-10.94333 16.55664,-16.18164 2.76133,-2.80866 5.39747,-5.574 7.86719,-8.28711 6.17426,-6.78273 11.31273,-13.2483 14.78711,-19.33594 0.69491,-1.21759 1.32253,-2.42027 1.87891,-3.60742 1.09735,-2.34138 2.22889,-4.63281 3.39453,-6.87305 1.16564,-2.24024 2.36578,-4.42765 3.59961,-6.560543 1.23383,-2.132912 2.5008,-4.210972 3.80273,-6.230469 2.60389,-4.038986 5.34501,-7.84572 8.22071,-11.394531 5.75138,-7.097613 12.04517,-13.165466 18.8789,-18.013672 1.70846,-1.212073 3.45063,-2.347666 5.22656,-3.404297 3.55193,-2.113297 7.23778,-3.910649 11.06055,-5.367187 1.91138,-0.728266 3.85848,-1.370542 5.83789,-1.925782 1.97943,-0.555245 3.99131,-1.024147 6.03906,-1.40039 2.04777,-0.376247 4.12961,-0.660364 6.2461,-0.851563 2.1165,-0.1912 4.26758,-0.289062 6.45312,-0.289062 1.84296,0 3.67597,0.08816 5.4961,0.259765 3.64016,0.343208 7.23276,1.024142 10.76953,2.029297 1.76846,0.502601 3.52231,1.086009 5.26172,1.748047 1.73944,0.662052 3.46338,1.403092 5.17187,2.220703 3.41691,1.635184 6.76941,3.577139 10.04883,5.810547 3.27943,2.233418 6.48594,4.757298 9.60938,7.556641 1.5617,1.399654 3.10381,2.86924 4.62304,4.404297 1.51923,1.535046 3.0159,3.13649 4.49024,4.802734 2.94869,3.332506 5.80538,6.923402 8.56054,10.755859 1.37761,1.916251 2.73097,3.892816 4.05664,5.927735 2.65136,4.069861 5.19511,8.372991 7.625,12.892581 1.21496,2.25981 2.40251,4.57358 3.5586,6.93945 2.3122,4.7318 4.50335,9.67169 6.5664,14.80273 1.03154,2.56555 2.0303,5.17891 2.9961,7.83789 2.8974,7.97701 5.49489,16.3667 7.75976,25.10938 0.75497,2.91426 1.47223,5.86658 2.15235,8.85742 0.68012,2.99086 1.32275,6.01868 1.92578,9.08203 1.20606,6.12667 2.25655,12.39397 3.14062,18.78516 0.44204,3.19559 0.84108,6.42231 1.19922,9.67773 0.35816,3.25545 0.67527,6.54053 0.94727,9.85157 0.27199,3.31103 0.50001,6.64923 0.68359,10.01171 0.18359,3.36247 0.32114,6.74854 0.41406,10.15821 0.0929,3.40966 0.14063,6.84222 0.14063,10.29492 0,3.45271 -0.0477,6.88526 -0.14063,10.29492 -0.0929,3.40968 -0.23047,6.79574 -0.41406,10.1582 -0.18358,3.36249 -0.4116,6.70069 -0.68359,10.01172 -0.272,3.31104 -0.58911,6.59613 -0.94727,9.85157 -0.35814,3.25542 -0.75718,6.48214 -1.19922,9.67773 -0.88407,6.39119 -1.93456,12.65849 -3.14062,18.78516 -0.60303,3.06335 -1.24566,6.09118 -1.92578,9.08203 -0.68013,2.99085 -1.39739,5.94513 -2.15235,8.85937 -0.75496,2.91425 -1.54749,5.78776 -2.375,8.6211 -0.8275,2.83331 -1.69007,5.62666 -2.58789,8.375 -0.89781,2.74832 -1.83109,5.45235 -2.79687,8.11132 -0.9658,2.65899 -1.96456,5.27236 -2.9961,7.8379 -1.03153,2.56551 -2.09449,5.08296 -3.18945,7.55078 -1.09496,2.46782 -2.22086,4.88606 -3.37695,7.25195 -1.15609,2.36588 -2.34364,4.67964 -3.5586,6.93945 -1.21496,2.25983 -2.45707,4.46581 -3.72851,6.61524 -1.27148,2.14947 -2.57081,4.24241 -3.89649,6.27734 -1.32569,2.03496 -2.67906,4.01152 -4.05664,5.92774 -1.37757,1.9162 -2.77988,3.77306 -4.20703,5.5664 -1.42713,1.79332 -2.87916,3.52319 -4.35351,5.18945 -1.47434,1.66625 -2.97101,3.26769 -4.49024,4.80274 -1.51923,1.53506 -3.06134,3.00463 -4.62304,4.4043 -1.56172,1.39967 -3.1442,2.73 -4.7461,3.99023 -3.20377,2.52045 -6.48551,4.75702 -9.83594,6.69531 -1.67516,0.96912 -3.36766,1.86403 -5.07617,2.68164 -1.70849,0.81761 -3.43243,1.55866 -5.17187,2.22071 -1.73949,0.66207 -3.49335,1.24547 -5.26172,1.74804 -1.76837,0.50258 -3.55047,0.92457 -5.3457,1.26368 -1.79524,0.3391 -3.60376,0.59598 -5.42383,0.76757 -1.82004,0.17161 -3.65305,0.25782 -5.4961,0.25782 -2.18554,0 -4.33662,-0.0979 -6.45312,-0.28907 -2.11648,-0.19119 -4.19833,-0.47532 -6.2461,-0.85156 -2.04776,-0.37625 -4.05963,-0.84514 -6.03906,-1.40039 -1.97941,-0.55523 -3.92651,-1.19752 -5.83789,-1.92578 -1.91143,-0.72829 -3.78927,-1.54214 -5.63281,-2.4375 -1.84357,-0.89538 -3.65174,-1.87302 -5.42774,-2.92969 -10.65581,-6.33992 -20.09865,-15.53173 -28.31835,-26.93164 -1.36994,-1.89996 -2.70586,-3.86134 -4.00782,-5.88086 -1.30196,-2.01953 -2.56892,-4.09564 -3.80273,-6.22851 -1.23381,-2.13287 -2.43396,-4.32223 -3.59961,-6.5625 -1.16564,-2.24024 -2.29718,-4.53167 -3.39453,-6.87305 -1.11372,-2.37634 -2.51652,-4.77719 -4.16406,-7.20117 -1.64751,-2.42395 -3.53922,-4.87115 -5.63868,-7.34571 -4.19887,-4.94905 -9.22169,-10.00333 -14.74609,-15.16015 -2.76221,-2.57842 -5.64968,-5.18255 -8.62305,-7.8125 -2.58333,-2.28497 -5.25245,-4.59757 -7.9375,-6.91992 a 0.50005,0.50005 0 0 0 -0.65429,0 c -2.68506,2.32235 -5.35222,4.63495 -7.93555,6.91992 -2.97337,2.62995 -5.86084,5.23408 -8.62305,7.8125 -5.52441,5.15682 -10.54722,10.2111 -14.74609,15.16015 -2.09944,2.47452 -3.99309,4.92172 -5.64063,7.34571 -1.64755,2.42402 -3.04841,4.82489 -4.16211,7.20117 -1.09734,2.34138 -2.22889,4.63281 -3.39453,6.87305 -1.16565,2.24027 -2.3658,4.42963 -3.59961,6.5625 -1.23381,2.13287 -2.50273,4.20898 -3.80468,6.22851 -1.30196,2.01952 -2.63788,3.9809 -4.00782,5.88086 -8.2197,11.39991 -17.66058,20.59172 -28.3164,26.93164 -1.776,1.05667 -3.58612,2.03431 -5.42969,2.92969 -1.84354,0.89536 -3.72138,1.70921 -5.63281,2.4375 -1.91138,0.72826 -3.85653,1.37055 -5.83594,1.92578 -1.97943,0.55525 -3.99325,1.02414 -6.04102,1.40039 -2.04776,0.37624 -4.12961,0.66037 -6.24609,0.85156 -2.1165,0.19121 -4.26758,0.28907 -6.45312,0.28907 -1.84305,0 -3.67411,-0.0862 -5.49414,-0.25782 -1.82007,-0.17159 -3.6286,-0.42847 -5.42383,-0.76757 -1.79523,-0.33911 -3.57734,-0.7611 -5.34571,-1.26368 -1.76837,-0.50257 -3.52223,-1.08597 -5.26171,-1.74804 -1.73945,-0.66205 -3.46533,-1.4031 -5.17383,-2.22071 -1.70851,-0.81761 -3.40101,-1.71252 -5.076175,-2.68164 -3.350426,-1.93829 -6.632158,-4.17486 -9.835938,-6.69531 -1.601888,-1.26023 -3.184374,-2.59056 -4.746093,-3.99023 -1.561699,-1.39967 -3.101856,-2.86924 -4.621094,-4.4043 -1.519227,-1.53505 -3.015895,-3.13649 -4.490234,-4.80274 -1.474354,-1.66626 -2.926384,-3.39613 -4.353516,-5.18945 -1.427152,-1.79334 -2.83142,-3.6502 -4.208984,-5.5664 -1.377573,-1.91622 -2.728995,-3.89278 -4.054688,-5.92774 -1.325681,-2.03493 -2.625006,-4.12787 -3.896484,-6.27734 -1.271449,-2.14943 -2.515509,-4.35541 -3.730469,-6.61524 -1.214956,-2.25982 -2.400556,-4.57357 -3.556641,-6.93945 -1.156092,-2.36589 -2.281989,-4.78413 -3.376953,-7.25195 -1.094956,-2.46782 -2.157928,-4.98527 -3.189453,-7.55078 -1.031534,-2.56554 -2.032255,-5.17891 -2.998047,-7.8379 -0.965808,-2.65902 -1.897131,-5.36305 -2.794922,-8.11132 -0.897793,-2.74829 -1.762327,-5.54163 -2.589843,-8.375 -0.827508,-2.83334 -1.618087,-5.70685 -2.373047,-8.6211 -0.754963,-2.91424 -1.474176,-5.86852 -2.154297,-8.85937 -0.68012,-2.99085 -1.320794,-6.01868 -1.923828,-9.08203 -1.20606,-6.12667 -2.25655,-12.39397 -3.140625,-18.78516 -0.442038,-3.19559 -0.843023,-6.42231 -1.201172,-9.67773 -0.35815,-3.25544 -0.673315,-6.54053 -0.945313,-9.85157 -0.271997,-3.31103 -0.500002,-6.64923 -0.683593,-10.01172 -0.18359,-3.36246 -0.323093,-6.74852 -0.416016,-10.1582 -0.09292,-3.40966 -0.138672,-6.84221 -0.138672,-10.29492 0,-3.4527 0.04575,-6.88526 0.138672,-10.29492 0.09292,-3.40967 0.232426,-6.79574 0.416016,-10.15821 0.183591,-3.36248 0.411596,-6.70068 0.683593,-10.01171 0.271998,-3.31104 0.587163,-6.59612 0.945313,-9.85157 0.358149,-3.25542 0.759134,-6.48214 1.201172,-9.67773 0.884075,-6.39119 1.934565,-12.65849 3.140625,-18.78516 0.603034,-3.06335 1.243708,-6.09117 1.923828,-9.08203 0.680119,-2.99084 1.399331,-5.94316 2.154297,-8.85742 2.264869,-8.74268 4.86041,-17.13237 7.757812,-25.10938 0.965792,-2.65898 1.966512,-5.27234 2.998047,-7.83789 2.063051,-5.13104 4.254213,-10.07093 6.566406,-14.80273 1.156086,-2.36587 2.341686,-4.67964 3.556641,-6.93945 2.429892,-4.51959 4.975592,-8.82272 7.626953,-12.892581 1.325672,-2.034919 2.67709,-4.011484 4.054688,-5.927735 2.755161,-3.832457 5.613806,-7.423353 8.5625,-10.755859 1.474339,-1.666244 2.971007,-3.267688 4.490234,-4.802734 1.519238,-1.535058 3.059397,-3.004642 4.621094,-4.404297 3.12343,-2.799343 6.32994,-5.323223 9.609375,-7.556641 3.279422,-2.233408 6.631921,-4.175363 10.048831,-5.810547 1.7085,-0.817612 3.43438,-1.558651 5.17383,-2.220703 1.7394,-0.662038 3.49325,-1.245446 5.26171,-1.748047 3.53677,-1.005155 7.12938,-1.686089 10.76954,-2.029297 1.82012,-0.171608 3.65118,-0.259765 5.49414,-0.259765 z"
       id="path21" />
  </g>
</svg>
