<?xml version="1.0" encoding="UTF-8" standalone="no"?>
<!-- Created with Inkscape (http://www.inkscape.org/) -->

<svg
   width="500mm"
   height="500mm"
   viewBox="0 0 500 500"
   version="1.1"
   id="svg1"
   sodipodi:docname="menu_icons.svg"
   inkscape:version="1.3.2 (091e20e, 2023-11-25, custom)"
   xmlns:inkscape="http://www.inkscape.org/namespaces/inkscape"
   xmlns:sodipodi="http://sodipodi.sourceforge.net/DTD/sodipodi-0.dtd"
   xmlns="http://www.w3.org/2000/svg"
   xmlns:svg="http://www.w3.org/2000/svg">
  <sodipodi:namedview
     id="namedview1"
     pagecolor="#ffffff"
     bordercolor="#666666"
     borderopacity="1.0"
     inkscape:showpageshadow="2"
     inkscape:pageopacity="0.0"
     inkscape:pagecheckerboard="0"
     inkscape:deskcolor="#d1d1d1"
     inkscape:document-units="mm"
     inkscape:zoom="0.42992976"
     inkscape:cx="1069.9422"
     inkscape:cy="1092.0388"
     inkscape:window-width="2560"
     inkscape:window-height="1387"
     inkscape:window-x="1912"
     inkscape:window-y="-8"
     inkscape:window-maximized="1"
     inkscape:current-layer="g5" />
  <defs
     id="defs1">
    <inkscape:path-effect
       effect="fillet_chamfer"
       id="path-effect17"
       is_visible="true"
       lpeversion="1"
       nodesatellites_param="F,0,0,1,0,0,0,1 @ F,0,0,1,0,0,0,1 @ F,0,0,1,0,0,0,1 @ F,0,0,1,0,0,0,1 @ F,0,0,1,0,0,0,1 @ F,0,0,1,0,0,0,1 @ F,0,0,1,0,0,0,1 @ F,0,0,1,0,0,0,1 @ F,0,0,1,0,0,0,1 @ F,0,0,1,0,0,0,1 @ F,0,0,1,0,0,0,1 @ F,0,0,1,0,0,0,1 | F,0,0,1,0,0,0,1 @ F,0,0,1,0,0,0,1 @ F,0,0,1,0,0,0,1 @ F,0,0,1,0,0,0,1 @ F,0,0,1,0,0,0,1 @ F,0,0,1,0,0,0,1 @ F,0,0,1,0,0,0,1 @ F,0,0,1,0,0,0,1 | F,0,0,1,0,0,0,1 @ F,0,0,1,0,0,0,1 @ F,0,0,1,0,0,0,1 @ F,0,0,1,0,0,0,1 @ F,0,0,1,0,0,0,1 @ F,0,0,1,0,0,0,1 @ F,0,0,1,0,0,0,1 @ F,0,0,1,0,0,0,1"
       radius="0"
       unit="px"
       method="auto"
       mode="F"
       chamfer_steps="1"
       flexible="false"
       use_knot_distance="true"
       apply_no_radius="true"
       apply_with_radius="true"
       only_selected="false"
       hide_knots="false" />
    <inkscape:path-effect
       effect="fillet_chamfer"
       id="path-effect16"
       is_visible="true"
       lpeversion="1"
       nodesatellites_param="F,0,0,1,0,0,0,1 @ F,0,0,1,0,0,0,1 @ F,0,0,1,0,0,0,1 @ F,0,0,1,0,0,0,1 @ F,0,0,1,0,0,0,1 @ F,0,0,1,0,0,0,1 @ F,0,0,1,0,0,0,1 @ F,0,0,1,0,0,0,1 @ F,0,0,1,0,0,0,1 @ F,0,0,1,0,0,0,1 @ F,0,0,1,0,0,0,1 @ F,0,0,1,0,0,0,1 | F,0,0,1,0,0,0,1 @ F,0,0,1,0,0,0,1 @ F,0,0,1,0,0,0,1 @ F,0,0,1,0,0,0,1 @ F,0,0,1,0,0,0,1 @ F,0,0,1,0,0,0,1 @ F,0,0,1,0,0,0,1 @ F,0,0,1,0,0,0,1 | F,0,0,1,0,0,0,1 @ F,0,0,1,0,0,0,1 @ F,0,0,1,0,0,0,1 @ F,0,0,1,0,0,0,1 @ F,0,0,1,0,0,0,1 @ F,0,0,1,0,0,0,1 @ F,0,0,1,0,0,0,1 @ F,0,0,1,0,0,0,1"
       radius="0"
       unit="px"
       method="auto"
       mode="F"
       chamfer_steps="1"
       flexible="false"
       use_knot_distance="true"
       apply_no_radius="true"
       apply_with_radius="true"
       only_selected="false"
       hide_knots="false" />
    <inkscape:path-effect
       effect="fillet_chamfer"
       id="path-effect15"
       is_visible="true"
       lpeversion="1"
       nodesatellites_param="F,0,0,1,0,0,0,1 @ F,0,0,1,0,0,0,1 @ F,0,0,1,0,0,0,1 @ F,0,0,1,0,0,0,1 @ F,0,0,1,0,0,0,1 @ F,0,0,1,0,0,0,1 @ F,0,0,1,0,0,0,1 @ F,0,0,1,0,0,0,1 @ F,0,0,1,0,0,0,1 @ F,0,0,1,0,0,0,1 @ F,0,0,1,0,0,0,1 @ F,0,0,1,0,0,0,1 | F,0,0,1,0,0,0,1 @ F,0,0,1,0,0,0,1 @ F,0,0,1,0,0,0,1 @ F,0,0,1,0,0,0,1 @ F,0,0,1,0,0,0,1 @ F,0,0,1,0,0,0,1 @ F,0,0,1,0,0,0,1 @ F,0,0,1,0,0,0,1 | F,0,0,1,0,0,0,1 @ F,0,0,1,0,0,0,1 @ F,0,0,1,0,0,0,1 @ F,0,0,1,0,0,0,1 @ F,0,0,1,0,0,0,1 @ F,0,0,1,0,0,0,1 @ F,0,0,1,0,0,0,1 @ F,0,0,1,0,0,0,1"
       radius="0"
       unit="px"
       method="auto"
       mode="F"
       chamfer_steps="1"
       flexible="false"
       use_knot_distance="true"
       apply_no_radius="true"
       apply_with_radius="true"
       only_selected="false"
       hide_knots="false" />
    <inkscape:path-effect
       effect="fillet_chamfer"
       id="path-effect7"
       is_visible="true"
       lpeversion="1"
       nodesatellites_param="F,0,1,1,0,24.739504,0,1 @ F,0,1,1,0,24.739504,0,1 @ F,0,1,1,0,24.739504,0,1 @ F,0,1,1,0,24.739504,0,1"
       radius="0"
       unit="px"
       method="auto"
       mode="F"
       chamfer_steps="1"
       flexible="false"
       use_knot_distance="true"
       apply_no_radius="true"
       apply_with_radius="true"
       only_selected="false"
       hide_knots="false" />
    <inkscape:path-effect
       effect="fillet_chamfer"
       id="path-effect3"
       is_visible="true"
       lpeversion="1"
       nodesatellites_param="F,0,0,1,0,14.360317,0,1 @ F,0,0,1,0,14.360317,0,1 @ F,0,0,1,0,14.360317,0,1 @ F,0,0,1,0,14.360317,0,1 @ F,0,0,1,0,14.360317,0,1 @ F,0,0,1,0,14.360317,0,1 @ F,0,0,1,0,14.360317,0,1 | F,0,1,1,0,13.315899,0,1 @ F,0,1,1,0,13.315899,0,1 @ F,0,1,1,0,13.315899,0,1 @ F,0,0,1,0,13.315899,0,1"
       radius="0"
       unit="px"
       method="auto"
       mode="F"
       chamfer_steps="1"
       flexible="false"
       use_knot_distance="true"
       apply_no_radius="true"
       apply_with_radius="true"
       only_selected="false"
       hide_knots="false" />
    <inkscape:path-effect
       effect="fillet_chamfer"
       id="path-effect1"
       is_visible="true"
       lpeversion="1"
       nodesatellites_param="F,0,0,1,0,0,0,1 @ F,0,0,1,0,0,0,1 @ F,0,0,1,0,0,0,1 @ F,0,0,1,0,0,0,1 @ F,0,0,1,0,0,0,1 @ F,0,0,1,0,0,0,1 @ F,0,0,1,0,0,0,1 @ F,0,0,1,0,0,0,1"
       radius="0"
       unit="px"
       method="auto"
       mode="F"
       chamfer_steps="1"
       flexible="false"
       use_knot_distance="true"
       apply_no_radius="true"
       apply_with_radius="true"
       only_selected="false"
       hide_knots="false" />
    <inkscape:path-effect
       effect="fillet_chamfer"
       id="path-effect7-5"
       is_visible="true"
       lpeversion="1"
       nodesatellites_param="F,0,0,1,0,22.277862,0,1 @ F,0,1,1,0,22.277862,0,1 @ F,0,1,1,0,22.277862,0,1 @ F,0,1,1,0,22.277862,0,1"
       radius="0"
       unit="px"
       method="auto"
       mode="F"
       chamfer_steps="1"
       flexible="false"
       use_knot_distance="true"
       apply_no_radius="true"
       apply_with_radius="true"
       only_selected="false"
       hide_knots="false" />
    <inkscape:path-effect
       effect="fillet_chamfer"
       id="path-effect7-7"
       is_visible="true"
       lpeversion="1"
       nodesatellites_param="F,0,1,1,0,24.739504,0,1 @ F,0,1,1,0,24.739504,0,1 @ F,0,1,1,0,24.739504,0,1 @ F,0,1,1,0,24.739504,0,1"
       radius="0"
       unit="px"
       method="auto"
       mode="F"
       chamfer_steps="1"
       flexible="false"
       use_knot_distance="true"
       apply_no_radius="true"
       apply_with_radius="true"
       only_selected="false"
       hide_knots="false" />
  </defs>
  <g
     inkscape:label="Split Line"
     inkscape:groupmode="layer"
     id="layer1"
     style="display:none">
    <path
       id="rect1"
       d="M 278.69191,21.416881 H 221.3081 c -8.87847,0 -16.02611,7.14764 -16.02611,16.0261 V 462.557 c 0,8.87847 7.14764,16.02612 16.02611,16.02612 h 57.38381 c 8.87845,0 16.0261,-7.14765 16.0261,-16.02612 V 37.442981 c 0,-8.87846 -7.14765,-16.0261 -16.0261,-16.0261 z"
       style="display:inline;fill:#000000;stroke-width:1;stroke-linejoin:round"
       sodipodi:nodetypes="sssssssss" />
  </g>
  <g
     inkscape:groupmode="layer"
     id="layer2"
     inkscape:label="Tabbed"
     style="display:none"
     transform="translate(0,10.461981)">
    <path
       id="rect2"
       style="fill:#000000;stroke-width:1.20041;stroke-linejoin:round"
       d="M 18.189602,25.668137 C 8.370053,25.668106 0.40972732,33.150984 0.40975905,42.381572 0.40505234,173.81924 0.5608857,305.25686 0.66568325,436.69447 0.67301925,445.92712 8.6372174,453.40798 18.458961,453.4079 H 481.8104 c 9.81955,3e-5 17.77987,-7.48284 17.77984,-16.71343 V 130.78909 c 3e-5,-9.23058 -7.96029,-16.71346 -17.77984,-16.71343 H 261.29503 c -9.81955,3e-5 -17.77987,-7.48285 -17.77984,-16.713436 V 42.381572 c 3e-5,-9.230587 -7.96029,-16.713464 -17.77984,-16.713435 z M 40.198068,58.959685 H 203.65019 c 5.37272,0 9.69769,4.065563 9.69769,9.116037 v 3.03908 c 0,5.050473 -4.32497,9.116037 -9.69769,9.116037 H 40.198068 c -5.372722,0 -9.698329,-4.065564 -9.698329,-9.116037 v -3.03908 c 0,-5.050474 4.325607,-9.116037 9.698329,-9.116037 z M 81.002816,170.42582 H 419.26654 c 7.26572,-5e-5 13.15575,5.29843 13.15571,11.83442 v 202.96307 c 4e-5,6.53599 -5.88999,11.83447 -13.15571,11.83442 H 81.002816 c -7.265714,5e-5 -13.155751,-5.29843 -13.155707,-11.83442 V 182.26024 c -4.4e-5,-6.53599 5.889993,-11.83447 13.155707,-11.83442 z"
       sodipodi:nodetypes="cccccccccccccsssssssssccccccccc" />
  </g>
  <g
     inkscape:groupmode="layer"
     id="g18"
     inkscape:label="Single"
     style="display:none"
     transform="translate(0,10.461981)">
    <path
       id="path18"
       style="fill:#000000;stroke-width:1.20041;stroke-linejoin:round"
       d="M 18.189602,25.668137 C 8.370053,25.668106 0.40972732,33.150984 0.40975905,42.381572 0.40505234,173.81924 0.5608857,305.25686 0.66568325,436.69447 0.67301925,445.92712 8.6372174,453.40798 18.458961,453.4079 H 481.8104 c 9.81955,3e-5 17.74775,-7.48284 17.74772,-16.71343 0,-77.77634 0,-288.56018 0,-394.312898 3e-5,-9.230587 -7.99241,-16.713464 -17.81196,-16.713435 z M 40.198068,58.959685 H 459.661 c 5.37272,0 9.69769,4.065563 9.69769,9.116037 v 3.03908 c 0,5.050473 -4.32497,9.116037 -9.69769,9.116037 H 40.198068 c -5.372722,0 -9.698329,-4.065564 -9.698329,-9.116037 v -3.03908 c 0,-5.050474 4.325607,-9.116037 9.698329,-9.116037 z M 81.002816,170.42582 H 419.26654 c 7.26572,-5e-5 13.15575,5.29843 13.15571,11.83442 v 202.96307 c 4e-5,6.53599 -5.88999,11.83447 -13.15571,11.83442 H 81.002816 c -7.265714,5e-5 -13.155751,-5.29843 -13.155707,-11.83442 V 182.26024 c -4.4e-5,-6.53599 5.889993,-11.83447 13.155707,-11.83442 z"
       sodipodi:nodetypes="cccccccccsssssssssccccccccc" />
  </g>
  <g
     inkscape:groupmode="layer"
     id="g5"
     inkscape:label="MWI"
     style="display:inline">
    <g
       id="g19"
       transform="translate(0,-41.23251)">
      <path
         id="rect5"
         style="display:inline;fill:#000000;stroke-width:1.50526;stroke-linejoin:round"
         d="m 25.914234,241.10893 c -14.62145,0 -26.3922852,10.46975 -26.3922852,23.47502 v 210.96172 c 0,13.00527 11.7708352,23.47501 26.3922852,23.47501 H 280.11619 c 14.62145,0 26.39311,-10.46974 26.39311,-23.47501 V 434.83721 H 201.13068 c -14.62145,0 -26.39228,-10.47048 -26.39228,-23.47575 V 320.66823 H 59.892892 c -14.621468,0 -26.393115,-10.46972 -26.393115,-23.47501 v -56.08429 z"
         sodipodi:nodetypes="sssssscsscsscs" />
      <path
         id="rect5-1"
         style="display:inline;fill:#000000;stroke-width:1.50526;stroke-linejoin:round"
         d="m 444.66899,194.71278 v 102.48044 c 0,13.00529 -11.77165,23.47501 -26.39312,23.47501 H 223.64582 v 57.40222 c 0,13.00528 11.77082,23.47501 26.39228,23.47501 h 224.04767 c 14.62147,0 26.39228,-10.46973 26.39228,-23.47501 V 218.18853 c 0,-13.00528 -11.77081,-23.47575 -26.39228,-23.47575 z"
         sodipodi:nodetypes="csscssssssc" />
      <path
         id="rect5-1-1"
         style="display:inline;fill:#000000;stroke-width:1.88883;stroke-linejoin:round"
         d="m 94.945049,83.444341 c -14.621452,0 -26.393114,10.470481 -26.393114,23.475749 v 153.91196 c 0,13.00527 11.771662,23.47501 26.393114,23.47501 H 382.60831 c 14.62145,0 26.39228,-10.46974 26.39228,-23.47501 V 106.92009 c 0,-13.005268 -11.77083,-23.475749 -26.39228,-23.475749 z m 12.685201,17.430739 h 224.89548 c 9.30636,0 16.79839,5.78616 16.79839,12.97329 0,7.18712 -7.49203,12.97328 -16.79839,12.97328 H 107.63025 c -9.306383,0 -16.798397,-5.78616 -16.798397,-12.97328 0,-7.18713 7.492014,-12.97329 16.798397,-12.97329 z m 268.30638,0 h 0.94932 c 7.81737,0 14.11124,5.78614 14.11124,12.97329 0,7.18712 -6.29387,12.97328 -14.11124,12.97328 h -0.94932 c -7.81735,0 -14.11042,-5.78616 -14.11042,-12.97328 0,-7.18715 6.29307,-12.97329 14.11042,-12.97329 z"
         sodipodi:nodetypes="sssssssssssssssssssssss" />
    </g>
  </g>
  <g
     inkscape:groupmode="layer"
     id="layer3"
     inkscape:label="Merge_R"
     style="display:none">
    <path
       id="rect7"
       style="stroke-width:1.20845;stroke-linejoin:round"
       d="M 69.049001,49.232617 A 24.739504,24.739504 0 0 0 44.309426,73.972192 V 423.27955 a 24.739504,24.739504 0 0 0 24.739575,24.73958 H 242.3485 a 24.739504,24.739504 0 0 0 24.73958,-24.73958 V 309.55161 h -30.15475 v 86.77507 A 18.042069,20.921679 0 0 1 218.89102,417.2484 H 92.507001 A 18.042069,20.921679 0 0 1 74.464691,396.32668 V 100.92507 A 18.042069,20.921679 0 0 1 92.507001,80.003348 H 218.89102 a 18.042069,20.921679 0 0 1 18.04231,20.921722 v 86.77506 h 30.15475 V 73.972192 A 24.739504,24.739504 0 0 0 242.3485,49.232617 Z"
       transform="translate(-16.714728,1.3741135)" />
    <path
       id="rect7-9"
       style="stroke-width:1.20845;stroke-linejoin:round"
       d="M 66.587363,49.232617 A 22.277862,22.277862 0 0 0 44.309654,71.510843 V 187.70013 H 87.277573 V 147.0158 L 210.57031,249.71392 87.277573,350.23595 V 309.55161 H 44.309654 V 425.7409 a 22.277862,22.277862 0 0 0 22.277709,22.27823 H 244.81008 A 22.277862,22.277862 0 0 0 267.0883,425.7409 V 71.510843 A 22.277862,22.277862 0 0 0 244.81008,49.232617 Z"
       transform="translate(205.31697,1.3741135)" />
  </g>
  <g
     inkscape:groupmode="layer"
     id="g10"
     inkscape:label="Merge_L"
     style="display:none"
     transform="matrix(-1,0,0,1,499.99997,0)">
    <path
       id="path9"
       style="stroke-width:1.20845;stroke-linejoin:round"
       d="M 69.049001,49.232617 A 24.739504,24.739504 0 0 0 44.309426,73.972192 V 423.27955 a 24.739504,24.739504 0 0 0 24.739575,24.73958 H 242.3485 a 24.739504,24.739504 0 0 0 24.73958,-24.73958 V 309.55161 h -30.15475 v 86.77507 A 18.042069,20.921679 0 0 1 218.89102,417.2484 H 92.507001 A 18.042069,20.921679 0 0 1 74.464691,396.32668 V 100.92507 A 18.042069,20.921679 0 0 1 92.507001,80.003348 H 218.89102 a 18.042069,20.921679 0 0 1 18.04231,20.921722 v 86.77506 h 30.15475 V 73.972192 A 24.739504,24.739504 0 0 0 242.3485,49.232617 Z"
       transform="translate(-16.714728,1.3741135)" />
    <path
       id="path10"
       style="stroke-width:1.20845;stroke-linejoin:round"
       d="M 66.587363,49.232617 A 22.277862,22.277862 0 0 0 44.309654,71.510843 V 187.70013 H 87.277573 V 147.0158 L 210.57031,249.71392 87.277573,350.23595 V 309.55161 H 44.309654 V 425.7409 a 22.277862,22.277862 0 0 0 22.277709,22.27823 H 244.81008 A 22.277862,22.277862 0 0 0 267.0883,425.7409 V 71.510843 A 22.277862,22.277862 0 0 0 244.81008,49.232617 Z"
       transform="translate(205.31697,1.3741135)" />
  </g>
  <g
     inkscape:groupmode="layer"
     id="g12"
     inkscape:label="Merge_U"
     style="display:none"
     transform="matrix(0,-1,-1,0,499.99997,499.99997)">
    <path
       id="path11"
       style="stroke-width:1.20845;stroke-linejoin:round"
       d="M 69.049001,49.232617 A 24.739504,24.739504 0 0 0 44.309426,73.972192 V 423.27955 a 24.739504,24.739504 0 0 0 24.739575,24.73958 H 242.3485 a 24.739504,24.739504 0 0 0 24.73958,-24.73958 V 309.55161 h -30.15475 v 86.77507 A 18.042069,20.921679 0 0 1 218.89102,417.2484 H 92.507001 A 18.042069,20.921679 0 0 1 74.464691,396.32668 V 100.92507 A 18.042069,20.921679 0 0 1 92.507001,80.003348 H 218.89102 a 18.042069,20.921679 0 0 1 18.04231,20.921722 v 86.77506 h 30.15475 V 73.972192 A 24.739504,24.739504 0 0 0 242.3485,49.232617 Z"
       transform="translate(-16.714728,1.3741135)" />
    <path
       id="path12"
       style="stroke-width:1.20845;stroke-linejoin:round"
       d="M 66.587363,49.232617 A 22.277862,22.277862 0 0 0 44.309654,71.510843 V 187.70013 H 87.277573 V 147.0158 L 210.57031,249.71392 87.277573,350.23595 V 309.55161 H 44.309654 V 425.7409 a 22.277862,22.277862 0 0 0 22.277709,22.27823 H 244.81008 A 22.277862,22.277862 0 0 0 267.0883,425.7409 V 71.510843 A 22.277862,22.277862 0 0 0 244.81008,49.232617 Z"
       transform="translate(205.31697,1.3741135)" />
  </g>
  <g
     inkscape:groupmode="layer"
     id="g14"
     inkscape:label="Merge_D"
     style="display:none"
     transform="rotate(90,249.99998,249.99999)">
    <path
       id="path13"
       style="stroke-width:1.20845;stroke-linejoin:round"
       d="M 69.049001,49.232617 A 24.739504,24.739504 0 0 0 44.309426,73.972192 V 423.27955 a 24.739504,24.739504 0 0 0 24.739575,24.73958 H 242.3485 a 24.739504,24.739504 0 0 0 24.73958,-24.73958 V 309.55161 h -30.15475 v 86.77507 A 18.042069,20.921679 0 0 1 218.89102,417.2484 H 92.507001 A 18.042069,20.921679 0 0 1 74.464691,396.32668 V 100.92507 A 18.042069,20.921679 0 0 1 92.507001,80.003348 H 218.89102 a 18.042069,20.921679 0 0 1 18.04231,20.921722 v 86.77506 h 30.15475 V 73.972192 A 24.739504,24.739504 0 0 0 242.3485,49.232617 Z"
       transform="translate(-16.714728,1.3741135)" />
    <path
       id="path14"
       style="stroke-width:1.20845;stroke-linejoin:round"
       d="M 66.587363,49.232617 A 22.277862,22.277862 0 0 0 44.309654,71.510843 V 187.70013 H 87.277573 V 147.0158 L 210.57031,249.71392 87.277573,350.23595 V 309.55161 H 44.309654 V 425.7409 a 22.277862,22.277862 0 0 0 22.277709,22.27823 H 244.81008 A 22.277862,22.277862 0 0 0 267.0883,425.7409 V 71.510843 A 22.277862,22.277862 0 0 0 244.81008,49.232617 Z"
       transform="translate(205.31697,1.3741135)" />
  </g>
</svg>
